M48
; DRILL file {KiCad 9.0.6} date 2026-01-25T11:53:15+0530
; FORMAT={-:-/ absolute / metric / decimal}
; #@! TF.CreationDate,2026-01-25T11:53:15+05:30
; #@! TF.GenerationSoftware,Kicad,Pcbnew,9.0.6
; #@! TF.FileFunction,Plated,1,2,PTH
FMAT,2
METRIC
; #@! TA.AperFunction,Plated,PTH,ViaDrill
T1C0.300
; #@! TA.AperFunction,Plated,PTH,ComponentDrill
T2C0.889
; #@! TA.AperFunction,Plated,PTH,ComponentDrill
T3C0.900
; #@! TA.AperFunction,Plated,PTH,ComponentDrill
T4C0.910
; #@! TA.AperFunction,Plated,PTH,ComponentDrill
T5C1.000
; #@! TA.AperFunction,Plated,PTH,ComponentDrill
T6C1.200
; #@! TA.AperFunction,Plated,PTH,ComponentDrill
T7C1.397
%
G90
G05
T1
X108.0Y-57.5
X110.0Y-60.0
X120.0Y-99.5
X124.5Y-86.0
X125.584Y-107.501
X132.5Y-67.5
X136.5Y-81.0
X141.842Y-74.386
X143.0Y-81.0
X149.5Y-78.0
X150.5Y-66.0
X162.0Y-102.0
X162.5Y-65.5
X162.5Y-90.0
X165.0Y-65.5
X170.0Y-61.5
X176.5Y-97.5
X179.5Y-67.4
X180.5Y-65.5
X181.0Y-80.0
X186.494Y-73.935
X188.0Y-72.0
X192.5Y-87.0
X199.0Y-68.5
X209.5Y-87.0
X211.5Y-108.0
X214.0Y-69.0
T2
X106.84Y-65.96
X106.84Y-68.5
X106.84Y-71.04
X114.46Y-78.66
X117.0Y-78.66
X119.54Y-78.66
X208.34Y-64.96
X208.34Y-67.5
X208.34Y-70.04
X215.96Y-77.66
X218.5Y-77.66
X221.04Y-77.66
T3
X113.825Y-55.8
X113.825Y-60.88
X120.175Y-55.8
X120.175Y-60.88
X215.325Y-54.8
X215.325Y-59.88
X221.675Y-54.8
X221.675Y-59.88
T5
X158.76Y-79.38
X158.76Y-81.92
X158.76Y-84.46
X158.76Y-87.0
X158.76Y-89.54
X158.76Y-92.08
X158.76Y-94.62
X158.76Y-97.16
X158.76Y-99.7
X158.76Y-102.24
X158.76Y-104.78
X158.76Y-107.32
X158.76Y-109.86
X158.76Y-112.4
X158.76Y-114.94
X160.875Y-64.249
X160.875Y-66.79
X163.415Y-64.249
X163.415Y-66.79
X165.955Y-64.249
X165.955Y-66.79
X168.495Y-64.249
X168.495Y-66.79
X174.0Y-79.38
X174.0Y-81.92
X174.0Y-84.46
X174.0Y-87.0
X174.0Y-89.54
X174.0Y-92.08
X174.0Y-94.62
X174.0Y-97.16
X174.0Y-99.7
X174.0Y-102.24
X174.0Y-104.78
X174.0Y-107.32
X174.0Y-109.86
X174.0Y-112.4
X174.0Y-114.94
T6
X139.0Y-67.5
X141.5Y-67.5
X188.0Y-64.5
X190.5Y-64.5
T7
X109.38Y-61.832
X109.38Y-75.167
X124.62Y-61.832
X124.62Y-75.167
X210.88Y-60.832
X210.88Y-74.167
X226.12Y-60.832
X226.12Y-74.167
T4
G00X90.5Y-42.985
M15
G01X90.5Y-45.015
M16
G05
G00X95.2Y-42.985
M15
G01X95.2Y-45.015
M16
G05
G00X99.9Y-42.985
M15
G01X99.9Y-45.015
M16
G05
G00X214.8Y-42.485
M15
G01X214.8Y-44.515
M16
G05
G00X219.5Y-42.485
M15
G01X219.5Y-44.515
M16
G05
G00X224.2Y-42.485
M15
G01X224.2Y-44.515
M16
G05
M30
